<svg xmlns="http://www.w3.org/2000/svg" width="800.769" height="170.714" fill="none" overflow="visible"><path fill="#FFF" d="M800.768 77.121V63.042h-17.484V41.154l-.589.181-16.422 5.025-.323.098v16.585h-25.92v-9.24c0-4.302.962-7.594 2.857-9.789 1.883-2.169 4.576-3.272 8.01-3.272 2.469 0 5.026.581 7.599 1.728l.645.288V27.931l-.304-.112c-2.4-.862-5.664-1.297-9.711-1.297-5.099 0-9.733 1.11-13.774 3.309-4.043 2.203-7.224 5.347-9.452 9.345-2.22 3.993-3.347 8.605-3.347 13.708v10.158h-12.174v14.079h12.174v59.314h17.477V77.121h25.92v37.693c0 15.524 7.322 23.391 21.763 23.391 2.373 0 4.87-.278 7.421-.823 2.596-.559 4.364-1.117 5.405-1.714l.23-.136v-14.209l-.711.47c-.949.632-2.13 1.148-3.515 1.532-1.391.391-2.552.587-3.452.587-3.383 0-5.886-.911-7.439-2.71-1.57-1.816-2.367-4.99-2.367-9.431v-34.65ZM671.35 123.915c-6.344 0-11.345-2.104-14.87-6.247-3.546-4.164-5.342-10.101-5.342-17.644 0-7.783 1.796-13.874 5.344-18.111 3.527-4.21 8.48-6.347 14.725-6.347 6.06 0 10.884 2.041 14.34 6.069 3.472 4.048 5.235 10.091 5.235 17.964 0 7.969-1.657 14.091-4.925 18.187-3.246 4.064-8.127 6.129-14.507 6.129m.777-62.641c-12.103 0-21.715 3.546-28.569 10.54-6.849 6.995-10.322 16.674-10.322 28.773 0 11.491 3.39 20.734 10.077 27.468 6.686 6.736 15.786 10.148 27.044 10.148 11.731 0 21.152-3.596 28.003-10.686 6.85-7.084 10.32-16.672 10.32-28.488 0-11.67-3.256-20.982-9.682-27.671-6.429-6.692-15.471-10.084-26.871-10.084m-67.069 0c-8.232 0-15.042 2.105-20.244 6.257-5.233 4.177-7.888 9.654-7.888 16.283 0 3.445.573 6.506 1.7 9.102 1.135 2.604 2.891 4.898 5.223 6.822 2.315 1.909 5.888 3.909 10.623 5.943 3.981 1.638 6.949 3.024 8.835 4.115 1.843 1.071 3.151 2.146 3.89 3.194.718 1.026 1.082 2.429 1.082 4.161 0 4.93-3.692 7.33-11.291 7.33-2.818 0-6.032-.589-9.554-1.749a35.917 35.917 0 0 1-9.784-4.961l-.726-.52v16.826l.267.124c2.472 1.141 5.59 2.104 9.265 2.861 3.668.759 7 1.144 9.895 1.144 8.933 0 16.127-2.116 21.376-6.292 5.283-4.205 7.96-9.812 7.96-16.67 0-4.947-1.441-9.19-4.282-12.611-2.821-3.394-7.718-6.509-14.548-9.263-5.441-2.184-8.927-3.997-10.365-5.389-1.386-1.344-2.09-3.245-2.09-5.653 0-2.135.869-3.845 2.652-5.229 1.798-1.392 4.3-2.1 7.438-2.1 2.912 0 5.891.46 8.854 1.362 2.961.901 5.562 2.108 7.732 3.585l.714.488V64.473l-.274-.118c-2.003-.859-4.643-1.594-7.851-2.19-3.193-.592-6.09-.891-8.609-.891m-73.694 62.641c-6.341 0-11.344-2.104-14.868-6.247-3.547-4.164-5.341-10.1-5.341-17.644 0-7.783 1.796-13.874 5.345-18.111 3.523-4.21 8.476-6.347 14.724-6.347 6.058 0 10.882 2.041 14.338 6.069 3.474 4.048 5.236 10.091 5.236 17.964 0 7.969-1.659 14.091-4.927 18.187-3.245 4.064-8.124 6.129-14.507 6.129m.78-62.641c-12.106 0-21.719 3.546-28.569 10.54-6.849 6.995-10.324 16.674-10.324 28.773 0 11.496 3.392 20.734 10.079 27.468 6.686 6.736 15.785 10.148 27.043 10.148 11.73 0 21.153-3.596 28.004-10.686 6.848-7.084 10.32-16.672 10.32-28.488 0-11.67-3.257-20.982-9.684-27.671-6.43-6.692-15.471-10.084-26.869-10.084m-65.422 14.478v-12.71h-17.264v73.391h17.264V98.891c0-6.384 1.447-11.628 4.303-15.59 2.82-3.914 6.578-5.897 11.165-5.897 1.555 0 3.301.256 5.191.763 1.872.505 3.227 1.052 4.026 1.628l.726.526V62.916l-.28-.12c-1.608-.683-3.882-1.027-6.76-1.027-4.338 0-8.221 1.394-11.546 4.138-2.919 2.413-5.029 5.72-6.642 9.845Zm-48.181-14.478c-7.92 0-14.985 1.698-20.993 5.046-6.022 3.356-10.678 8.146-13.847 14.238-3.154 6.077-4.756 13.176-4.756 21.092 0 6.934 1.553 13.298 4.622 18.907 3.071 5.617 7.417 10.012 12.919 13.061 5.494 3.044 11.843 4.587 18.874 4.587 8.204 0 15.209-1.64 20.825-4.875l.227-.13v-15.816l-.725.529a32.41 32.41 0 0 1-8.446 4.398c-3.052 1.065-5.834 1.604-8.273 1.604-6.774 0-12.212-2.12-16.16-6.299-3.955-4.184-5.961-10.06-5.961-17.454 0-7.44 2.091-13.466 6.214-17.913 4.11-4.434 9.558-6.683 16.192-6.683 5.674 0 11.204 1.921 16.435 5.716l.724.526V65.143l-.234-.132c-1.968-1.102-4.653-2.012-7.986-2.702-3.32-.688-6.566-1.035-9.651-1.035m-51.486 1.769h-17.263v73.39h17.263ZM358.6 31.778c-2.841 0-5.32.967-7.356 2.884-2.044 1.922-3.081 4.342-3.081 7.198 0 2.811 1.024 5.187 3.05 7.058 2.012 1.866 4.498 2.812 7.388 2.812 2.889 0 5.385-.946 7.421-2.809 2.049-1.874 3.088-4.249 3.088-7.061 0-2.756-1.011-5.152-3.004-7.121-1.991-1.966-4.517-2.961-7.506-2.961m-43.074 25.85v78.805h17.618V34.024h-24.385l-30.995 76.067-30.078-76.067h-25.378v102.409h16.557V57.62h.568l31.763 78.813h12.494l31.267-78.805ZM81.214 81.214H0V0h81.214Zm89.499 0H89.5V0h81.213Zm-89.501 89.5H0V89.5h81.212Zm89.501 0H89.5V89.5h81.213Z"/></svg>