<svg xmlns="http://www.w3.org/2000/svg" width="165" height="28" fill="none"><path fill="#FFF" d="M22.791 16.043a3.7 3.7 0 0 0 .982-1.715l6.972 7.004q-.565.775-1.249 1.446c-5.174 5.213-13.585 5.214-18.776 0L0 11.995l4.694-4.712a2.82 2.82 0 0 1 2.01-.844 2.82 2.82 0 0 1 2.009.844l8.722 8.76a3.77 3.77 0 0 0 2.678 1.12 3.77 3.77 0 0 0 2.678-1.12m6.705-12.135 10.728 10.784-4.69 4.726a2.84 2.84 0 0 1-4.024 0l-8.719-8.773a3.784 3.784 0 0 0-6.339 1.712l-6.97-7.004a14 14 0 0 1 1.238-1.445c5.191-5.21 13.603-5.21 18.776 0m123.177 23.384V9.506h2.991v.863c.932-.765 2.021-1.081 3.213-1.081 3.406 0 6.123 2.696 6.123 6.058 0 3.352-2.717 6.084-6.123 6.084-1.192 0-2.28-.316-3.213-1.067v6.93zm-4.99-6.179v-.752c-.918.752-2.015 1.067-3.2 1.067-3.406 0-6.127-2.731-6.127-6.083 0-3.362 2.721-6.057 6.128-6.057 1.17 0 2.262.315 3.199 1.08v-.862h2.996v11.607Zm-16.419 0-2.594-7.407-2.497 7.407h-3.108l-4.113-11.607h3.355l2.332 7.626 2.722-7.626h2.625l2.669 7.626 2.363-7.626h3.371l-4.15 11.608h-2.976Zm-20.126-3.617c1.066.933 2.353 1.201 3.179 1.201 1.07 0 1.408-.439 1.408-.85 0-1.736-5.858-.666-5.858-4.844 0-2.125 1.513-3.715 4.08-3.715 1.029 0 2.894.242 4.21 1.469l-1.582 2.148c-1.021-.704-1.969-.873-2.603-.873-.996 0-1.19.436-1.19.729 0 1.639 5.785.849 5.785 4.989 0 2.123-1.534 3.678-4.443 3.678-2.147 0-3.525-.825-4.571-1.627Zm-3.43 3.641s-.873.291-2.305.291c-2.256 0-3.431-1.481-3.431-3.763v-5.27h-1.823V9.506h1.823V5.574h2.997v3.932h3.06v2.889h-3.06v4.637c0 .815.217 1.566 1.287 1.566.753 0 1.452-.121 1.452-.121Zm-16.909-4.831c.339 1.42 1.479 2.414 3.206 2.414 1.054 0 2.167-.388 2.842-1.296l2.043 1.637c-1.046 1.494-2.895 2.367-4.863 2.367-3.477 0-6.153-2.608-6.153-6.011 0-3.288 2.316-6.129 5.987-6.129 3.395 0 5.806 2.792 5.806 6.057 0 .33-.023.669-.072.961Zm-5.96 4.807-4.561-5.171v5.171h-2.99V3.036h2.99v10.975l4.176-4.505h3.838l-5.049 5.306 5.542 6.301Zm-8.763-2.538c-1.078 1.714-3.02 2.853-5.229 2.853-3.408 0-6.131-2.731-6.131-6.083 0-3.362 2.723-6.057 6.131-6.057a6.17 6.17 0 0 1 5.18 2.768l-2.556 1.481a3.2 3.2 0 0 0-2.625-1.36c-1.743 0-3.18 1.457-3.18 3.168 0 1.737 1.437 3.205 3.18 3.205 1.14 0 2.136-.582 2.7-1.492Zm-15.742 2.538V9.506h2.998v11.608h-2.997ZM59.949 5.67c0-1.067.817-1.882 1.897-1.882 1.066 0 1.871.814 1.871 1.882.001 1.08-.804 1.907-1.87 1.907-1.08 0-1.898-.827-1.898-1.907m-2.386 15.468s-.868.291-2.305.291c-2.257 0-3.432-1.482-3.432-3.763v-5.27h-1.822v-2.89h1.822V5.574h2.999v3.932h3.06v2.889h-3.06v4.637c0 .815.214 1.566 1.285 1.566.747 0 1.453-.121 1.453-.121v2.66Zm98.101-5.646c.076 1.665 1.485 3.059 3.213 3.059 1.75 0 3.177-1.468 3.177-3.205 0-1.711-1.427-3.168-3.177-3.168-1.727 0-3.137 1.408-3.213 3.046zm-11.181-3.314c-1.748 0-3.182 1.456-3.182 3.168 0 1.737 1.434 3.205 3.182 3.205 1.777 0 3.2-1.468 3.2-3.205 0-1.711-1.423-3.168-3.2-3.168m-47.828 1.931c-.169-1.178-1.389-2.077-2.82-2.077-1.389 0-2.505.825-2.939 2.077h5.758Z"/></svg>